<?xml version="1.0" standalone="no"?>
<!DOCTYPE svg PUBLIC "-//W3C//DTD SVG 20010904//EN"
 "http://www.w3.org/TR/2001/REC-SVG-20010904/DTD/svg10.dtd">
<svg version="1.0" xmlns="http://www.w3.org/2000/svg"
 width="700.000000pt" height="700.000000pt" viewBox="0 0 700.000000 700.000000"
 preserveAspectRatio="xMidYMid meet">
<metadata>
Created by potrace 1.11, written by Peter Selinger 2001-2013
</metadata>
<g transform="translate(0.000000,700.000000) scale(0.100000,-0.100000)"
fill="#000000" stroke="none">
<path d="M3298 6995 c-2 -1 -41 -5 -88 -9 -100 -7 -225 -22 -295 -36 -27 -5
-61 -12 -75 -14 -431 -79 -908 -273 -1275 -519 -69 -46 -297 -217 -305 -228
-3 -3 -25 -23 -50 -44 -85 -70 -216 -201 -361 -361 -107 -118 -286 -370 -386
-545 -158 -274 -309 -656 -369 -932 -20 -90 -53 -272 -59 -322 -4 -33 -9 -69
-11 -80 -18 -98 -25 -571 -11 -715 12 -109 27 -226 41 -295 2 -11 6 -36 10
-55 49 -272 156 -595 283 -857 449 -928 1279 -1611 2270 -1868 72 -19 142 -36
155 -39 13 -2 60 -11 106 -20 46 -9 111 -19 145 -22 34 -3 65 -8 68 -9 15 -10
227 -20 409 -20 188 0 341 8 430 21 144 21 295 48 345 61 33 8 67 16 75 18
109 22 388 117 550 188 119 51 305 146 352 178 14 11 29 19 33 19 25 0 384
258 494 354 123 108 295 280 366 366 21 25 41 47 44 50 4 3 45 55 91 115 332
437 547 914 654 1456 14 70 28 155 32 190 3 35 8 67 10 70 9 17 19 214 18 399
0 188 -6 331 -19 420 -3 19 -7 56 -10 81 -3 25 -7 54 -9 65 -2 10 -11 60 -21
109 -85 456 -276 915 -543 1305 -56 82 -194 265 -211 280 -3 3 -35 38 -70 78
-368 420 -870 762 -1408 958 -171 63 -433 134 -578 158 -54 9 -239 35 -295 41
-56 7 -526 16 -532 10z m392 -769 c58 -4 116 -8 130 -10 14 -3 45 -7 70 -10
25 -3 56 -8 70 -11 41 -8 63 -13 105 -20 73 -13 222 -55 327 -91 390 -136 730
-347 1018 -634 155 -154 180 -182 267 -298 65 -85 179 -258 201 -302 7 -14 29
-57 50 -96 108 -200 219 -518 256 -734 3 -19 8 -46 11 -60 8 -42 20 -134 30
-236 9 -84 9 -352 1 -444 -21 -232 -59 -419 -129 -631 -103 -310 -248 -580
-455 -848 -86 -111 -333 -358 -442 -443 -451 -348 -919 -532 -1484 -584 -174
-16 -462 -4 -646 26 -30 5 -71 12 -90 15 -74 12 -270 65 -370 100 -286 99
-559 249 -807 442 -87 67 -314 286 -388 373 -83 98 -265 355 -265 375 0 4 -9
19 -19 34 -31 44 -127 239 -169 346 -64 161 -125 368 -147 496 -5 32 -13 74
-20 117 -17 108 -26 244 -27 407 0 134 3 202 17 315 3 19 7 53 10 75 28 237
131 568 254 813 141 285 293 496 525 728 237 236 486 410 796 553 80 37 282
114 330 127 8 2 58 15 110 29 92 25 222 51 305 61 22 3 51 7 65 10 14 2 81 7
150 10 69 4 126 7 127 8 3 2 107 -1 233 -8z"/>
<path d="M3378 5685 c-2 -2 -41 -6 -88 -10 -252 -21 -579 -121 -817 -251 -80
-44 -245 -150 -288 -185 -244 -202 -383 -355 -522 -574 -164 -259 -291 -615
-318 -890 -4 -33 -8 -71 -11 -85 -5 -30 -5 -332 0 -375 2 -16 7 -59 11 -95 4
-36 18 -114 30 -175 181 -853 857 -1521 1710 -1689 119 -23 133 -25 215 -33
227 -21 509 -2 715 49 173 42 143 33 300 93 405 155 775 457 1030 840 75 113
177 317 225 448 37 102 95 326 105 407 3 30 9 66 11 80 3 14 7 117 8 230 3
198 -14 397 -34 410 -6 4 -1679 5 -1750 1 -14 -1 -761 -740 -768 -759 -1 -4
389 -7 868 -6 486 0 870 -3 870 -8 0 -5 -7 -24 -15 -44 -8 -19 -14 -37 -14
-40 2 -10 -46 -122 -78 -183 -71 -132 -208 -313 -299 -391 -216 -185 -410
-283 -674 -342 -104 -23 -377 -34 -460 -18 -25 4 -64 11 -87 14 -162 21 -416
131 -576 248 -45 33 -125 104 -179 158 -335 342 -470 812 -372 1295 9 48 45
167 59 200 96 223 155 315 295 467 215 232 485 374 820 433 77 13 371 14 440
0 140 -27 294 -77 405 -133 65 -32 204 -117 215 -131 3 -3 21 -18 40 -32 19
-15 53 -43 75 -62 22 -20 42 -37 45 -37 3 0 126 121 273 268 l268 268 -53 50
c-174 160 -320 262 -528 364 -207 103 -457 181 -655 205 -27 3 -66 8 -85 12
-35 5 -357 12 -362 8z"/>
</g>
</svg>
