<?xml version="1.0" standalone="no"?>
<!DOCTYPE svg PUBLIC "-//W3C//DTD SVG 20010904//EN"
 "http://www.w3.org/TR/2001/REC-SVG-20010904/DTD/svg10.dtd">
<svg version="1.0" xmlns="http://www.w3.org/2000/svg"
 width="1024.000000pt" height="1024.000000pt" viewBox="0 0 1024.000000 1024.000000"
 preserveAspectRatio="xMidYMid meet">
<metadata>
Created by potrace 1.11, written by Peter Selinger 2001-2013
</metadata>
<g transform="translate(0.000000,1024.000000) scale(0.100000,-0.100000)"
fill="#000000" stroke="none">
<path d="M2355 10233 c-81 -7 -268 -36 -325 -49 -14 -3 -36 -8 -50 -10 -91
-16 -300 -86 -440 -146 -177 -77 -454 -241 -546 -323 -6 -5 -26 -21 -44 -35
-188 -142 -439 -431 -580 -666 -81 -136 -190 -358 -190 -387 0 -7 -4 -17 -9
-22 -20 -22 -108 -328 -125 -435 -3 -19 -11 -66 -17 -105 -6 -38 -13 -81 -17
-95 -4 -14 -7 -1276 -8 -2805 -2 -2307 0 -2796 11 -2875 8 -52 16 -111 19
-131 40 -291 178 -658 350 -936 141 -229 371 -491 556 -633 24 -19 51 -41 58
-48 26 -24 198 -140 272 -183 314 -182 687 -303 1040 -337 100 -9 5524 -9
5620 0 92 9 117 13 250 39 58 12 115 23 128 25 38 7 320 103 370 125 578 260
1014 667 1282 1199 66 132 144 317 155 370 1 3 11 37 22 75 30 100 54 208 68
305 3 19 7 44 10 55 2 11 8 54 12 95 10 94 11 5528 1 5630 -21 210 -71 429
-141 620 -205 560 -589 1024 -1102 1332 -66 39 -298 158 -310 158 -4 0 -21 6
-38 14 -93 43 -368 123 -477 140 -19 3 -44 8 -56 10 -12 2 -45 7 -74 11 -29 4
-62 10 -74 13 -22 7 -5530 12 -5601 5z m3130 -3287 c17 -3 46 -9 65 -12 72
-12 86 -15 145 -30 230 -58 491 -192 694 -357 106 -85 120 -108 107 -162 -8
-33 -184 -212 -217 -220 -20 -5 -35 1 -70 29 -183 147 -349 249 -494 303 -22
8 -53 21 -70 28 -16 7 -79 26 -140 41 -93 23 -135 28 -265 30 -263 5 -486 -52
-705 -177 -125 -72 -194 -126 -310 -243 -225 -226 -373 -534 -413 -856 -14
-113 -7 -367 13 -465 66 -322 202 -576 429 -800 204 -202 451 -330 732 -381
117 -21 383 -23 509 -4 44 6 96 14 115 17 126 18 458 128 516 170 18 13 19 32
20 361 0 191 -3 352 -7 357 -5 7 -111 10 -296 9 -158 0 -300 3 -316 7 -55 15
-62 31 -65 167 -4 141 4 172 51 193 45 20 933 20 970 0 52 -28 51 -19 52 -664
1 -724 17 -649 -155 -736 -176 -89 -434 -184 -564 -207 -16 -3 -32 -6 -35 -8
-3 -2 -22 -7 -41 -10 -19 -3 -46 -8 -60 -11 -155 -33 -475 -50 -620 -33 -36 4
-87 10 -115 13 -80 10 -222 45 -328 82 -671 232 -1152 833 -1225 1528 -9 83
-9 336 0 420 29 275 133 560 295 807 34 53 69 103 75 110 7 7 34 38 60 69 295
351 741 589 1193 635 33 4 62 8 63 10 6 5 375 -4 407 -10z"/>
</g>
</svg>
