<?xml version="1.0" standalone="no"?>
<!DOCTYPE svg PUBLIC "-//W3C//DTD SVG 20010904//EN"
 "http://www.w3.org/TR/2001/REC-SVG-20010904/DTD/svg10.dtd">
<svg version="1.0" xmlns="http://www.w3.org/2000/svg"
 width="2048.000000pt" height="2048.000000pt" viewBox="0 0 2048.000000 2048.000000"
 preserveAspectRatio="xMidYMid meet">
<metadata>
Created by potrace 1.11, written by Peter Selinger 2001-2013
</metadata>
<g transform="translate(0.000000,2048.000000) scale(0.100000,-0.100000)"
fill="#000000" stroke="none">
<path d="M9878 20475 c-1 -1 -75 -6 -163 -10 -88 -4 -176 -8 -195 -10 -19 -2
-73 -6 -120 -10 -112 -8 -137 -11 -315 -31 -43 -4 -121 -14 -170 -20 -25 -3
-99 -13 -205 -29 -14 -2 -47 -7 -75 -11 -27 -3 -59 -8 -70 -10 -11 -2 -60 -11
-110 -20 -290 -50 -659 -134 -965 -218 -8 -3 -40 -11 -70 -19 -235 -64 -804
-259 -995 -342 -16 -7 -97 -41 -180 -75 -477 -200 -952 -448 -1460 -763 -94
-58 -376 -248 -483 -326 -74 -53 -144 -103 -155 -111 -19 -13 -236 -180 -277
-213 -9 -6 -49 -39 -90 -72 -41 -33 -88 -72 -105 -86 -16 -15 -68 -59 -115
-99 -304 -259 -714 -663 -966 -950 -21 -24 -46 -51 -54 -60 -8 -8 -49 -56 -90
-105 -41 -50 -78 -92 -81 -95 -4 -3 -54 -64 -112 -137 -197 -247 -437 -576
-577 -793 -30 -47 -57 -87 -60 -90 -3 -3 -15 -21 -27 -40 -11 -19 -64 -106
-117 -193 -53 -87 -96 -160 -96 -162 0 -2 -18 -32 -39 -68 -105 -172 -348
-653 -469 -927 -154 -349 -306 -755 -408 -1085 -52 -169 -151 -522 -169 -604
-2 -9 -13 -59 -25 -111 -20 -90 -24 -105 -34 -147 -6 -24 -54 -262 -59 -293
-3 -14 -12 -64 -21 -111 -9 -47 -18 -99 -20 -115 -4 -29 -23 -155 -31 -204
-13 -86 -16 -107 -29 -230 -4 -30 -9 -71 -11 -90 -4 -33 -8 -71 -19 -180 -3
-25 -8 -85 -11 -135 -4 -49 -9 -106 -10 -125 -27 -276 -26 -1086 0 -1425 18
-233 30 -366 40 -445 2 -19 7 -57 10 -85 3 -27 12 -95 20 -150 8 -55 17 -120
21 -145 10 -71 10 -71 23 -150 7 -41 19 -107 27 -147 7 -39 17 -88 20 -109 7
-43 4 -32 44 -214 17 -80 34 -156 36 -170 14 -71 110 -431 155 -585 245 -819
591 -1607 1027 -2335 99 -164 318 -509 332 -520 3 -3 30 -41 60 -85 47 -71
232 -321 352 -476 39 -51 199 -247 223 -274 6 -6 35 -40 65 -75 30 -36 57 -67
60 -70 3 -3 25 -27 49 -55 233 -263 591 -621 846 -846 28 -24 52 -47 55 -50 9
-9 263 -223 340 -285 203 -164 697 -524 719 -524 5 0 11 -3 13 -8 1 -4 28 -23
58 -42 30 -19 57 -37 60 -40 5 -6 255 -162 305 -190 17 -10 55 -32 85 -50 357
-214 885 -474 1310 -647 563 -228 1254 -439 1760 -537 14 -2 50 -10 80 -16 30
-6 66 -13 80 -16 14 -2 59 -11 100 -19 41 -7 95 -17 120 -20 25 -3 52 -8 60
-10 14 -4 42 -8 128 -20 20 -3 48 -8 62 -10 14 -3 48 -7 75 -11 28 -3 61 -7
75 -9 30 -5 97 -13 165 -20 28 -3 68 -7 90 -10 117 -13 344 -31 545 -42 271
-15 1046 -8 1240 11 19 2 73 7 120 11 86 6 107 8 215 20 33 3 79 8 103 11 99
10 142 15 237 29 55 8 120 17 145 20 60 8 208 33 295 50 39 8 81 16 95 18 152
28 188 35 208 41 9 3 28 7 42 10 125 23 464 109 660 167 58 17 119 34 135 39
52 14 245 76 365 118 435 151 814 311 1220 514 219 109 281 142 435 228 33 18
78 43 100 55 77 42 331 199 485 299 404 263 780 547 1164 881 45 39 90 79 102
90 12 11 68 63 124 115 182 167 476 466 645 655 39 43 79 88 90 100 95 106
276 326 409 500 281 366 512 710 757 1125 117 199 356 665 459 895 29 66 63
143 76 170 84 187 243 609 329 874 48 147 70 220 146 481 22 77 111 445 134
555 19 91 66 337 71 365 3 19 10 62 16 95 10 62 11 68 23 150 9 66 14 105 20
135 4 24 9 66 20 160 3 25 9 83 15 130 10 86 13 124 26 280 3 47 8 101 10 120
25 262 25 1144 -1 1425 -4 46 -14 172 -20 260 -3 33 -7 74 -10 90 -3 17 -7 53
-10 80 -3 28 -7 70 -10 94 -4 41 -6 59 -20 156 -3 22 -15 101 -26 175 -11 74
-22 145 -24 157 -3 24 -18 104 -20 113 -1 3 -5 28 -10 55 -5 28 -9 52 -10 55
-1 3 -4 19 -8 35 -3 17 -18 86 -33 155 -31 145 -29 136 -38 175 -48 198 -90
369 -101 405 -8 25 -28 95 -45 155 -34 117 -96 317 -109 350 -4 11 -18 52 -31
90 -70 212 -223 606 -316 811 -179 396 -341 715 -516 1012 -87 149 -282 466
-301 487 -4 6 -27 39 -50 74 -23 34 -49 73 -57 86 -65 97 -382 531 -400 545
-3 3 -43 52 -89 110 -46 58 -87 107 -90 110 -4 3 -26 30 -51 60 -46 56 -60 72
-169 195 -190 214 -523 553 -707 720 -48 44 -92 85 -98 90 -6 6 -45 39 -86 75
-41 36 -77 67 -80 71 -28 31 -382 316 -535 430 -287 215 -724 508 -930 623
-16 9 -48 28 -70 41 -252 155 -849 452 -1187 591 -62 25 -126 52 -143 59 -16
8 -61 25 -100 39 -38 15 -79 30 -90 36 -87 40 -666 230 -870 285 -138 37 -362
94 -385 99 -14 2 -72 16 -130 29 -128 31 -400 84 -520 103 -19 3 -73 11 -120
19 -79 13 -209 31 -290 41 -19 2 -48 6 -65 9 -16 2 -55 7 -85 10 -30 3 -71 7
-90 10 -19 2 -71 7 -115 11 -44 4 -93 8 -110 10 -16 1 -82 6 -145 9 -63 4
-131 9 -150 11 -40 5 -906 14 -912 9z m892 -2059 c30 -3 89 -8 130 -11 41 -3
93 -7 115 -10 22 -2 69 -7 105 -11 36 -3 72 -7 80 -9 8 -1 44 -5 80 -9 36 -4
90 -11 120 -16 30 -5 75 -11 100 -14 25 -4 56 -8 70 -11 14 -3 52 -10 85 -15
103 -17 119 -20 145 -26 14 -3 36 -8 50 -11 14 -2 77 -15 140 -29 63 -14 122
-27 130 -29 8 -1 62 -15 120 -30 58 -15 112 -28 120 -30 45 -10 338 -98 366
-110 19 -8 34 -12 34 -10 0 3 221 -73 360 -124 49 -18 209 -83 420 -170 217
-90 752 -372 970 -510 36 -23 72 -44 80 -48 31 -14 389 -259 519 -356 116 -85
375 -289 391 -306 3 -4 23 -21 45 -40 292 -244 678 -629 918 -916 23 -27 56
-65 73 -85 140 -162 372 -474 536 -721 99 -150 298 -472 298 -483 0 -2 25 -48
56 -102 60 -105 244 -472 282 -564 13 -30 28 -63 33 -73 36 -67 204 -501 260
-672 18 -55 36 -109 40 -120 20 -53 114 -377 125 -429 2 -10 10 -42 18 -70 13
-46 52 -212 62 -261 2 -11 15 -76 29 -145 13 -69 27 -137 29 -153 3 -15 10
-55 16 -88 6 -33 13 -75 15 -92 2 -18 6 -45 9 -62 3 -16 8 -52 11 -79 3 -27 7
-59 10 -70 2 -12 7 -50 10 -86 4 -36 8 -78 10 -95 2 -16 7 -62 10 -100 3 -39
7 -80 9 -92 12 -61 21 -341 21 -678 0 -387 -6 -540 -30 -790 -3 -22 -7 -67
-10 -100 -3 -33 -8 -71 -10 -85 -2 -14 -7 -50 -10 -80 -5 -46 -41 -282 -59
-385 -24 -144 -102 -510 -111 -524 -2 -4 -6 -18 -8 -32 -34 -180 -253 -861
-338 -1046 -10 -24 -19 -45 -19 -48 0 -2 -27 -69 -61 -147 -85 -200 -281 -595
-379 -768 -46 -80 -91 -158 -100 -175 -39 -70 -180 -290 -269 -420 -463 -682
-1022 -1286 -1676 -1811 -213 -171 -611 -453 -765 -542 -25 -14 -47 -29 -50
-32 -16 -20 -382 -223 -595 -330 -404 -204 -691 -324 -1115 -466 -245 -82
-644 -192 -800 -220 -14 -3 -41 -9 -60 -14 -94 -25 -451 -87 -600 -105 -25 -3
-56 -7 -70 -10 -14 -2 -47 -7 -75 -10 -27 -3 -68 -7 -90 -10 -22 -2 -71 -7
-110 -10 -38 -3 -86 -8 -105 -9 -148 -15 -318 -21 -660 -21 -379 0 -587 8
-775 29 -27 3 -77 8 -110 11 -79 8 -229 27 -315 40 -19 3 -53 8 -75 11 -178
25 -464 82 -705 141 -274 66 -751 215 -925 288 -16 7 -79 32 -140 55 -292 114
-733 325 -1000 480 -22 12 -60 34 -85 48 -178 99 -518 324 -750 496 -133 98
-375 288 -395 310 -5 6 -37 33 -70 61 -33 27 -76 63 -95 81 -19 18 -66 60
-105 95 -84 76 -417 409 -495 494 -124 136 -148 164 -221 250 -580 689 -1034
1444 -1359 2260 -155 386 -291 823 -375 1200 -41 185 -56 254 -61 293 -3 26
-8 50 -10 53 -2 4 -6 24 -9 45 -3 22 -10 62 -15 89 -8 47 -27 171 -35 237 -2
16 -9 63 -14 106 -6 42 -13 100 -15 127 -3 28 -8 79 -11 114 -24 233 -30 394
-30 771 0 328 8 599 20 660 2 10 7 60 10 110 4 51 8 100 10 110 2 10 6 47 9
82 4 35 9 81 12 103 10 73 14 100 19 125 2 14 7 44 10 68 7 50 32 198 39 228
2 12 7 37 10 55 42 257 164 725 278 1064 280 832 684 1601 1212 2305 76 102
150 199 165 215 14 17 41 50 59 73 19 22 43 51 54 64 11 13 38 45 61 72 198
235 563 604 813 822 453 396 893 706 1455 1024 98 55 502 256 604 300 55 23
118 51 140 61 97 43 398 159 570 217 206 71 604 185 755 217 8 2 59 13 114 25
99 22 121 26 166 35 14 3 36 7 50 10 14 3 36 8 50 10 14 2 36 6 50 9 14 3 41
7 60 10 19 3 46 8 60 11 14 3 45 7 70 11 25 3 70 9 100 14 30 5 80 12 110 15
30 3 73 8 95 11 42 5 67 8 180 19 105 10 139 13 265 20 63 4 117 9 119 10 5 6
860 -3 921 -9z"/>
<path d="M10127 16384 c-1 -1 -74 -5 -162 -8 -88 -4 -180 -8 -205 -11 -25 -2
-73 -6 -107 -9 -52 -4 -215 -24 -348 -42 -214 -29 -646 -129 -895 -208 -63
-20 -122 -38 -130 -41 -69 -20 -375 -138 -510 -198 -129 -57 -484 -236 -575
-290 -33 -19 -89 -52 -125 -73 -130 -75 -571 -379 -600 -413 -3 -3 -30 -25
-60 -48 -30 -23 -64 -50 -75 -60 -11 -10 -33 -29 -50 -41 -84 -66 -283 -251
-430 -402 -154 -157 -163 -168 -235 -251 -35 -41 -66 -76 -70 -79 -31 -25
-306 -388 -393 -520 -31 -47 -60 -89 -64 -95 -19 -23 -126 -198 -193 -315 -61
-106 -266 -506 -271 -528 -3 -13 -18 -51 -38 -95 -57 -126 -217 -560 -236
-643 -2 -10 -18 -68 -35 -129 -28 -100 -73 -282 -84 -338 -2 -12 -9 -44 -15
-72 -6 -27 -13 -63 -16 -80 -42 -239 -46 -265 -60 -380 -8 -60 -15 -121 -20
-185 -4 -36 -8 -78 -10 -95 -8 -67 -18 -340 -18 -500 1 -314 19 -557 69 -930
9 -67 52 -293 85 -440 31 -146 122 -465 172 -610 29 -82 103 -281 116 -310 5
-11 16 -36 24 -55 212 -500 437 -898 735 -1299 94 -127 87 -118 139 -182 21
-25 54 -66 73 -90 28 -35 110 -129 205 -235 32 -36 264 -270 327 -329 239
-227 515 -444 823 -647 105 -69 213 -138 240 -153 28 -16 102 -58 165 -94 124
-70 434 -222 540 -265 36 -15 74 -31 85 -36 144 -67 675 -243 825 -275 8 -2
74 -17 145 -33 165 -39 362 -75 470 -88 28 -3 52 -7 55 -9 3 -2 37 -6 75 -10
39 -3 77 -8 85 -10 8 -2 51 -7 95 -10 44 -4 96 -8 115 -10 211 -22 748 -22
955 -1 17 2 66 6 110 10 44 4 96 9 116 12 20 2 54 6 75 9 21 2 53 6 70 9 17 3
46 8 65 10 207 27 550 100 754 161 50 15 104 30 120 35 83 21 465 156 550 195
17 8 80 35 140 61 149 64 448 215 570 287 55 33 114 68 132 78 117 67 363 234
528 358 84 63 313 249 351 285 6 6 53 49 104 96 470 430 875 942 1202 1521
109 192 259 502 324 669 14 36 39 97 54 135 35 87 141 405 168 505 30 109 80
303 86 331 23 108 76 395 81 438 4 30 9 63 11 75 2 12 6 46 9 76 4 30 8 62 10
70 2 8 7 53 10 100 3 47 8 101 10 120 22 202 22 744 0 960 -2 19 -6 73 -10
120 -4 46 -8 87 -10 90 -1 3 -6 41 -10 85 -3 43 -8 82 -10 85 -2 3 -6 29 -10
59 -9 72 -13 93 -20 100 -4 3 -1367 6 -3031 6 l-3024 0 2 -1025 3 -1024 1980
-1 c1269 0 1979 -4 1979 -10 -12 -76 -130 -425 -184 -542 -11 -24 -20 -45 -20
-48 0 -27 -191 -394 -274 -525 -22 -36 -45 -73 -51 -82 -32 -54 -187 -265
-254 -348 -129 -158 -336 -373 -466 -485 -38 -33 -79 -68 -90 -78 -52 -48
-232 -183 -348 -261 -299 -200 -621 -360 -964 -476 -116 -39 -322 -98 -372
-106 -14 -3 -39 -9 -56 -14 -16 -5 -50 -12 -75 -15 -25 -4 -63 -10 -85 -15
-64 -14 -161 -28 -305 -44 -214 -25 -723 -25 -845 -1 -11 2 -45 7 -75 10 -109
12 -137 16 -240 36 -224 43 -581 141 -685 189 -11 5 -63 25 -115 45 -296 114
-701 346 -955 547 -141 112 -158 126 -270 228 -378 346 -692 765 -909 1215
-113 231 -143 304 -211 510 -39 116 -106 360 -120 432 -3 16 -7 39 -10 53 -19
85 -41 230 -50 320 -4 36 -9 76 -11 90 -9 50 -18 249 -18 395 0 143 12 413 18
424 2 3 7 35 10 71 34 327 146 756 283 1080 268 634 640 1136 1189 1600 205
173 528 379 805 513 362 176 814 319 1144 363 28 3 57 8 65 9 9 2 43 6 75 10
33 4 71 9 85 11 29 4 196 14 320 19 47 2 88 4 93 4 4 1 6 461 5 1023 l-3 1023
-53 0 c-30 0 -54 -1 -55 -1z"/>
</g>
</svg>
