<?xml version="1.0" standalone="no"?>
<!DOCTYPE svg PUBLIC "-//W3C//DTD SVG 20010904//EN"
 "http://www.w3.org/TR/2001/REC-SVG-20010904/DTD/svg10.dtd">
<svg version="1.0" xmlns="http://www.w3.org/2000/svg"
 width="16.000000pt" height="16.000000pt" viewBox="0 0 16.000000 16.000000"
 preserveAspectRatio="xMidYMid meet">
<metadata>
Created by potrace 1.11, written by Peter Selinger 2001-2013
</metadata>
<g transform="translate(0.000000,16.000000) scale(0.001563,-0.001563)"
fill="#000000" stroke="none">
<path d="M1969 9365 c0 -16 -2 -1941 -2 -4277 l-2 -4248 40 -1 c51 0 2455 0
2475 1 13 0 15 354 15 3127 l0 3128 355 -1 355 -1 81 -26 c173 -57 274 -154
313 -301 14 -54 6 -211 -13 -266 -49 -135 -144 -221 -298 -274 -81 -27 -186
-45 -290 -48 -59 -2 -78 -7 -80 -18 -2 -8 -3 -521 -3 -1140 l1 -1125 379 -5
c252 -4 391 -10 413 -17 131 -46 249 -175 277 -303 14 -64 7 -174 -15 -240
-37 -111 -108 -192 -213 -244 -97 -48 -151 -54 -503 -56 -180 0 -330 -2 -333
-4 -8 -5 -7 -2174 1 -2182 8 -7 706 -7 863 1 360 17 778 109 1045 228 187 83
290 139 430 232 376 252 656 584 815 970 86 208 127 368 170 670 23 159 22
547 0 668 -3 12 -7 33 -10 47 -2 14 -7 41 -10 60 -7 47 -39 171 -63 245 -80
245 -221 499 -411 735 -71 88 -280 306 -361 376 -127 109 -442 334 -468 334
-35 0 -6 36 141 182 166 165 270 287 367 433 29 44 61 92 71 107 29 42 135
257 168 341 71 179 132 435 148 622 14 157 7 454 -12 555 -3 13 -7 42 -11 65
-18 126 -89 337 -160 480 -216 432 -650 809 -1172 1021 -231 93 -456 145 -737
170 -44 4 -907 8 -1917 8 l-1838 1 -1 -30z"/>
</g>
</svg>
