<?xml version="1.0" encoding="UTF-8" standalone="no"?>
<svg width="30px" height="30px" viewBox="0 0 30 30" version="1.1" xmlns="http://www.w3.org/2000/svg" xmlns:xlink="http://www.w3.org/1999/xlink">
    <!-- Generator: Sketch 39.1 (31720) - http://www.bohemiancoding.com/sketch -->
    <title>Logotype</title>
    <desc>Created with Sketch.</desc>
    <defs></defs>
    <g id="Page-1" stroke="none" stroke-width="1" fill="none" fill-rule="evenodd">
        <g id="Logotype">
            <rect id="bg" fill="#222222" x="0" y="0" width="30" height="30" rx="7.5"></rect>
            <path d="M9.90234375,15.024375 C9.90234375,18.024375 12.3173437,20.409375 15.3173437,20.409375 C17.4923437,20.409375 19.0223438,19.419375 19.0223438,19.419375 C19.0823437,19.374375 19.1423438,19.254375 19.1423438,19.179375 L19.1423438,15.744375 C19.1423438,15.594375 19.0223438,15.459375 18.8723437,15.459375 L16.2773438,15.459375 C16.1123438,15.459375 15.9923437,15.579375 15.9923437,15.744375 L15.9923437,16.299375 C15.9923437,16.449375 16.1123438,16.569375 16.2773438,16.569375 L18.0023438,16.569375 L18.0023438,18.669375 C18.0023438,18.669375 16.9523438,19.299375 15.3023437,19.299375 C12.9323437,19.299375 11.1323437,17.274375 11.1323437,14.964375 C11.1323437,12.639375 12.9323437,10.659375 15.3023437,10.659375 C16.3073438,10.659375 17.3873438,11.154375 18.1523438,11.829375 C18.3173437,11.979375 18.4073437,11.994375 18.5423438,11.844375 C18.6623438,11.709375 18.8273438,11.559375 18.9623438,11.424375 C19.0823437,11.304375 19.0673437,11.124375 18.9473438,11.004375 C17.9273437,10.134375 16.8323437,9.609375 15.3173437,9.609375 C12.3173437,9.609375 9.90234375,12.024375 9.90234375,15.024375 L9.90234375,15.024375 Z" id="G" fill="#FFFFFF"></path>
        </g>
    </g>
</svg>