<?xml version="1.0" encoding="UTF-8"?>
<svg width="50px" height="50px" viewBox="0 0 512 512" version="1.1" xmlns="http://www.w3.org/2000/svg" xmlns:xlink="http://www.w3.org/1999/xlink">
    <!-- Generator: Sketch 41.2 (35397) - http://www.bohemiancoding.com/sketch -->
    <title>G Copy 4</title>
    <desc>Created with Sketch.</desc>
    <defs></defs>
    <g id="Page-1" stroke="none" stroke-width="1" fill="none" fill-rule="evenodd">
        <g id="G-Copy-4" fill="#FFFFFF">
            <g id="Logotype">
                <path d="M256,512 C397.384896,512 512,397.384896 512,256 C512,114.615104 397.384896,0 256,0 C114.615104,0 0,114.615104 0,256 C0,397.384896 114.615104,512 256,512 Z M256,456 C366.45695,456 456,366.45695 456,256 C456,145.54305 366.45695,56 256,56 C145.54305,56 56,145.54305 56,256 C56,366.45695 145.54305,456 256,456 Z" id="Circle"></path>
                <path d="M357.187329,284.000022 C344.961566,327.837629 304.736745,360 257,360 C199.562386,360 153,313.437614 153,256 C153,198.562386 199.562386,152 257,152 C285.718807,152 311.718807,163.640597 330.539105,182.460895 L370.137085,142.862915 C341.18278,113.90861 301.18278,96 257,96 C168.63444,96 97,167.63444 97,256 C97,344.36556 168.63444,416 257,416 C345.36556,416 417,344.36556 417,256 C417,246.448053 416.162973,237.091604 414.558265,228 L357.187335,228 L284.998413,228.001587 L228.999908,284.000092 L357.187329,284.000022 L357.187329,284.000022 Z" id="G"></path>
            </g>
        </g>
    </g>
</svg>
