<?xml version="1.0" encoding="UTF-8"?>
<svg width="50px" height="50px" viewBox="0 0 500 500" version="1.1" xmlns="http://www.w3.org/2000/svg" xmlns:xlink="http://www.w3.org/1999/xlink">
    <!-- Generator: Sketch 40.1 (33804) - http://www.bohemiancoding.com/sketch -->
    <title>Logo</title>
    <desc>Created with Sketch.</desc>
    <defs></defs>
    <g id="Page-2" stroke="none" stroke-width="1" fill="none" fill-rule="evenodd">
        <g id="Logo">
            <path d="M498.765619,225 C499.582014,233.222656 500,241.562515 500,250 C500,388.071187 388.071187,500 250,500 C111.928813,500 0,388.071187 0,250 C0,111.928813 111.928813,0 250,0 L250,50 C139.54305,50 50,139.54305 50,250 C50,360.45695 139.54305,450 250,450 C360.45695,450 450,360.45695 450,250 C450,241.533491 449.473917,233.189856 448.452656,225 L498.765619,225 Z" id="Combined-Shape" fill="#434343"></path>
            <path d="M346.849563,275 C335.748493,318.13068 296.595986,350 250,350 C194.771525,350 150,305.228475 150,250 C150,194.771525 194.771525,150 250,150 L250,100 C167.157288,100 100,167.157288 100,250 C100,332.842712 167.157288,400 250,400 C332.842712,400 400,332.842712 400,250 C400,241.482195 399.29003,233.130212 397.926039,225 L357.424781,225 L250,225 L250,275 L346.849563,275 Z" id="G" fill="#FFA963"></path>
        </g>
    </g>
</svg>
