<?xml version="1.0" encoding="UTF-8"?>
<svg width="50px" height="50px" viewBox="0 0 50 50" version="1.1" xmlns="http://www.w3.org/2000/svg" xmlns:xlink="http://www.w3.org/1999/xlink">
    <!-- Generator: Sketch 41.2 (35397) - http://www.bohemiancoding.com/sketch -->
    <title>Logotype</title>
    <desc>Created with Sketch.</desc>
    <defs></defs>
    <g id="Page-1" stroke="none" stroke-width="1" fill="none" fill-rule="evenodd">
        <g id="Homepage-No.-01" transform="translate(-696.000000, -24.000000)">
            <g id="Logotype" transform="translate(696.000000, 24.000000)">
                <path d="M25,50 C38.8071187,50 50,38.8071187 50,25 C50,11.1928813 38.8071187,0 25,0 C11.1928813,0 0,11.1928813 0,25 C0,38.8071187 11.1928813,50 25,50 Z M25,44.53125 C35.7868115,44.53125 44.53125,35.7868115 44.53125,25 C44.53125,14.2131885 35.7868115,5.46875 25,5.46875 C14.2131885,5.46875 5.46875,14.2131885 5.46875,25 C5.46875,35.7868115 14.2131885,44.53125 25,44.53125 Z" id="Circle" fill="#434343"></path>
                <path d="M34.8815751,27.7343771 C33.6876529,32.0153935 29.7594478,35.15625 25.0976562,35.15625 C19.4885143,35.15625 14.9414062,30.609142 14.9414062,25 C14.9414062,19.390858 19.4885143,14.84375 25.0976562,14.84375 C27.9022272,14.84375 30.4412897,15.980527 32.2792095,17.8184468 L36.1461997,13.9514565 C33.3186309,11.1238877 29.4123809,9.375 25.0976562,9.375 C16.468207,9.375 9.47265625,16.3705508 9.47265625,25 C9.47265625,33.6294492 16.468207,40.625 25.0976562,40.625 C33.7271055,40.625 40.7226562,33.6294492 40.7226562,25 C40.7226562,24.0671927 40.6409153,23.153477 40.4842055,22.265625 L34.8815757,22.265625 L27.8318763,22.26578 L22.3632723,27.7343839 L34.8815751,27.7343771 L34.8815751,27.7343771 Z" id="G" fill="#FFA963"></path>
            </g>
        </g>
    </g>
</svg>
